<?xml version="1.0" encoding="utf-8"?>
<svg version="1.1" xmlns:xlink="http://www.w3.org/1999/xlink" width="158px" height="72px" xmlns="http://www.w3.org/2000/svg">
  <g transform="matrix(1 0 0 1 -114 -14 )">
    <path d="M 114 14  L 272 14  L 272 86  L 114 86  L 114 14  " fill-rule="nonzero" fill="#cccccc" stroke="none" />
    <path d="M 119 19  L 267 19  L 267 81  L 119 81  L 119 19  " fill-rule="nonzero" fill="#ffffff" stroke="none" />
    <path d="M 201.56 35.599999999999994  C 198.536 35.599999999999994  196.16 33.224  196.16 30.199999999999996  C 196.16 27.175999999999995  198.536 24.799999999999997  201.56 24.799999999999997  C 204.584 24.799999999999997  206.96 27.175999999999995  206.96 30.199999999999996  C 206.96 33.224  204.584 35.599999999999994  201.56 35.599999999999994  " fill-rule="nonzero" fill="#cccccc" stroke="none" />
    <path d="M 121 79  L 121 47.099999999999994  L 157 32.599999999999994  L 207.39999999999998 63.141772151898735  L 236.2 41.3  L 265 63.141772151898735  L 265 79  L 121 79  " fill-rule="nonzero" fill="#169bd5" stroke="none" />
  </g>
</svg>