<?xml version="1.0" encoding="utf-8"?>
<svg version="1.1" xmlns:xlink="http://www.w3.org/1999/xlink" width="300px" height="170px" xmlns="http://www.w3.org/2000/svg">
  <g transform="matrix(1 0 0 1 -100 -516 )">
    <path d="M 100 516  L 400 516  L 400 686  L 100 686  L 100 516  " fill-rule="nonzero" fill="#cccccc" stroke="none" />
    <path d="M 112 528  L 388 528  L 388 674  L 112 674  L 112 528  " fill-rule="nonzero" fill="#ffffff" stroke="none" />
    <path d="M 268.75 567  C 261.61 567  256 561.39  256 554.25  C 256 547.11  261.61 541.5  268.75 541.5  C 275.89 541.5  281.5 547.11  281.5 554.25  C 281.5 561.39  275.89 567  268.75 567  " fill-rule="nonzero" fill="#cccccc" stroke="none" />
    <path d="M 117 670  L 117 594.65  L 183.75 560.4  L 277.2 623.42  L 330.6 580.95  L 384 623.42  L 384 670  L 117 670  " fill-rule="nonzero" fill="#169bd5" stroke="none" />
  </g>
</svg>